<?xml version="1.0" encoding="UTF-8"?>
<svg xmlns="http://www.w3.org/2000/svg" xmlns:xlink="http://www.w3.org/1999/xlink" width="87pt" height="86pt" viewBox="0 0 87 86" version="1.1">
<g id="surface1">
<path style=" stroke:none;fill-rule:evenodd;fill:rgb(83.59375%,15.281677%,20.776367%);fill-opacity:1;" d="M 43.300781 85.566406 C 66.90625 85.566406 86.042969 66.429688 86.042969 42.824219 C 86.042969 19.214844 66.90625 0.078125 43.300781 0.078125 C 19.695313 0.078125 0.554688 19.214844 0.554688 42.824219 C 0.554688 66.429688 19.695313 85.566406 43.300781 85.566406 "/>
<path style=" stroke:none;fill-rule:evenodd;fill:rgb(94.921875%,31.37207%,33.714294%);fill-opacity:1;" d="M 43.300781 81.929688 C 64.898438 81.929688 82.40625 64.421875 82.40625 42.824219 C 82.40625 21.222656 64.898438 3.714844 43.300781 3.714844 C 21.703125 3.714844 4.191406 21.222656 4.191406 42.824219 C 4.191406 64.421875 21.703125 81.929688 43.300781 81.929688 "/>
<path style=" stroke:none;fill-rule:evenodd;fill:rgb(62.304688%,11.376953%,16.868591%);fill-opacity:1;" d="M 23.140625 57.949219 L 58.429688 22.660156 C 59.792969 21.296875 62.027344 21.296875 63.394531 22.660156 L 63.460938 22.726563 C 64.824219 24.09375 64.824219 26.328125 63.460938 27.695313 L 28.171875 62.980469 C 26.804688 64.347656 24.570313 64.347656 23.207031 62.980469 L 23.140625 62.917969 C 21.773438 61.550781 21.773438 59.316406 23.140625 57.949219 "/>
<path style=" stroke:none;fill-rule:evenodd;fill:rgb(62.304688%,11.376953%,16.868591%);fill-opacity:1;" d="M 28.171875 22.660156 L 63.460938 57.949219 C 64.824219 59.316406 64.824219 61.550781 63.460938 62.917969 L 63.394531 62.980469 C 62.027344 64.347656 59.792969 64.347656 58.429688 62.980469 L 23.140625 27.695313 C 21.773438 26.328125 21.773438 24.09375 23.140625 22.726563 L 23.207031 22.660156 C 24.570313 21.296875 26.804688 21.296875 28.171875 22.660156 "/>
</g>
</svg>
