<?xml version="1.0" encoding="UTF-8"?>
<svg xmlns="http://www.w3.org/2000/svg" xmlns:xlink="http://www.w3.org/1999/xlink" width="87pt" height="87pt" viewBox="0 0 87 87" version="1.1">
<g id="surface1">
<path style=" stroke:none;fill-rule:evenodd;fill:rgb(7.446289%,75.78125%,11.767578%);fill-opacity:1;" d="M 43.699219 86.035156 C 67.304688 86.035156 86.441406 66.898438 86.441406 43.292969 C 86.441406 19.6875 67.304688 0.550781 43.699219 0.550781 C 20.09375 0.550781 0.957031 19.6875 0.957031 43.292969 C 0.957031 66.898438 20.09375 86.035156 43.699219 86.035156 "/>
<path style=" stroke:none;fill-rule:evenodd;fill:rgb(7.446289%,75.78125%,11.767578%);fill-opacity:1;" d="M 43.699219 82.398438 C 65.296875 82.398438 82.808594 64.890625 82.808594 43.292969 C 82.808594 21.695313 65.296875 4.183594 43.699219 4.183594 C 22.101563 4.183594 4.59375 21.695313 4.59375 43.292969 C 4.59375 64.890625 22.101563 82.398438 43.699219 82.398438 "/>
<path style=" stroke:none;fill-rule:evenodd;fill:rgb(4.315186%,45.483398%,2.745056%);fill-opacity:1;" d="M 32.136719 21.480469 L 58.855469 21.480469 C 62.414063 21.480469 65.324219 24.394531 65.324219 27.953125 L 65.324219 54.671875 Z M 55.367188 65.101563 L 28.542969 65.101563 C 24.984375 65.101563 22.074219 62.191406 22.074219 58.632813 L 22.074219 31.808594 L 55.367188 65.101563 "/>
</g>
</svg>
